<?xml version="1.0" standalone="no"?><!DOCTYPE svg PUBLIC "-//W3C//DTD SVG 1.1//EN" "http://www.w3.org/Graphics/SVG/1.1/DTD/svg11.dtd"><svg t="1494568262298" class="icon" style="" viewBox="0 0 1024 1024" version="1.1" xmlns="http://www.w3.org/2000/svg" p-id="2518" xmlns:xlink="http://www.w3.org/1999/xlink" width="200" height="200"><defs><style type="text/css"></style></defs><path d="M883.2 60.8l-89.6 0c-12.8 0-25.6 9.6-25.6 25.6s9.6 25.6 25.6 25.6l89.6 0c25.6 0 48 22.4 48 48l0 713.6c0 25.6-22.4 48-48 48l-736 0c-25.6 0-48-22.4-48-48l0-713.6c0-25.6 22.4-48 48-48l99.2 0c12.8 0 25.6-9.6 25.6-25.6s-9.6-25.6-25.6-25.6l-99.2 0c-54.4 0-96 41.6-96 96l0 713.6c0 54.4 41.6 96 96 96l736 0c54.4 0 96-41.6 96-96l0-713.6C979.2 102.4 934.4 60.8 883.2 60.8z" p-id="2519"></path><path d="M393.6 108.8l240 0c12.8 0 25.6-9.6 25.6-25.6s-9.6-25.6-25.6-25.6l-240 0c-12.8 0-25.6 9.6-25.6 25.6S380.8 108.8 393.6 108.8z" p-id="2520"></path><path d="M294.4 345.6l464 0c12.8 0 25.6-9.6 25.6-25.6s-9.6-25.6-25.6-25.6l-464 0c-12.8 0-25.6 9.6-25.6 25.6S278.4 345.6 294.4 345.6z" p-id="2521"></path><path d="M294.4 540.8l464 0c12.8 0 25.6-9.6 25.6-25.6s-9.6-25.6-25.6-25.6l-464 0c-12.8 0-25.6 9.6-25.6 25.6S278.4 540.8 294.4 540.8z" p-id="2522"></path><path d="M294.4 736l464 0c12.8 0 25.6-9.6 25.6-25.6s-9.6-25.6-25.6-25.6l-464 0c-12.8 0-25.6 9.6-25.6 25.6S278.4 736 294.4 736z" p-id="2523"></path></svg>