<?xml version="1.0" standalone="no"?><!DOCTYPE svg PUBLIC "-//W3C//DTD SVG 1.1//EN" "http://www.w3.org/Graphics/SVG/1.1/DTD/svg11.dtd"><svg t="1494568254533" class="icon" style="" viewBox="0 0 1024 1024" version="1.1" xmlns="http://www.w3.org/2000/svg" p-id="2286" xmlns:xlink="http://www.w3.org/1999/xlink" width="200" height="200"><defs><style type="text/css"></style></defs><path d="M865.745455 102.4C865.745455 102.4 865.745455 102.4 865.745455 102.4 865.745455 99.29697 865.745455 99.29697 865.745455 102.4c-18.618182-24.824242-46.545455-40.339394-77.575758-40.339394l-574.060606 0c-55.854545 0-99.29697 43.442424-99.29697 99.29697l0 698.181818c0 55.854545 43.442424 99.29697 99.29697 99.29697l574.060606 0c55.854545 0 99.29697-43.442424 99.29697-99.29697l0-698.181818C887.466667 139.636364 881.260606 117.915152 865.745455 102.4zM788.169697 111.709091c3.10303 0 9.309091 0 12.412121 3.10303l-291.684848 186.181818-313.406061-186.181818c6.206061-3.10303 12.412121-3.10303 18.618182-3.10303L788.169697 111.709091zM837.818182 862.642424c0 27.927273-21.721212 49.648485-49.648485 49.648485l-574.060606 0c-27.927273 0-49.648485-21.721212-49.648485-49.648485l0-698.181818c0-3.10303 0-3.10303 0-6.206061l332.024242 195.490909c9.309091 6.206061 18.618182 3.10303 24.824242 0l316.509091-201.69697c0 3.10303 3.10303 9.309091 3.10303 12.412121L840.921212 862.642424z" p-id="2287"></path><path d="M639.224242 561.648485c12.412121 0 24.824242-12.412121 24.824242-24.824242 0-12.412121-12.412121-24.824242-24.824242-24.824242l-83.781818 0 71.369697-71.369697c9.309091-9.309091 9.309091-24.824242 0-34.133333-9.309091-9.309091-24.824242-9.309091-34.133333 0l-80.678788 80.678788c0 0-3.10303 0-3.10303 0 0 0 0 0 0 0l-77.575758-77.575758c-9.309091-9.309091-24.824242-9.309091-34.133333 0-9.309091 9.309091-9.309091 24.824242 0 34.133333l68.266667 68.266667-74.472727 0c-12.412121 0-24.824242 12.412121-24.824242 24.824242 0 12.412121 12.412121 24.824242 24.824242 24.824242l93.090909 0 0 74.472727-93.090909 0c-12.412121 0-24.824242 12.412121-24.824242 24.824242 0 12.412121 12.412121 24.824242 24.824242 24.824242l93.090909 0 0 89.987879c0 12.412121 12.412121 24.824242 24.824242 24.824242 12.412121 0 24.824242-12.412121 24.824242-24.824242l0-89.987879 108.606061 0c12.412121 0 24.824242-12.412121 24.824242-24.824242 0-12.412121-12.412121-24.824242-24.824242-24.824242l-108.606061 0 0-74.472727L639.224242 561.648485z" p-id="2288"></path></svg>