<?xml version="1.0" standalone="no"?><!DOCTYPE svg PUBLIC "-//W3C//DTD SVG 1.1//EN" "http://www.w3.org/Graphics/SVG/1.1/DTD/svg11.dtd"><svg t="1494568271685" class="icon" style="" viewBox="0 0 1024 1024" version="1.1" xmlns="http://www.w3.org/2000/svg" p-id="2751" xmlns:xlink="http://www.w3.org/1999/xlink" width="200" height="200"><defs><style type="text/css"></style></defs><path d="M508.8 44.8c-256 0-464 208-464 464s208 464 464 464 464-208 464-464S764.8 44.8 508.8 44.8zM508.8 924.8c-230.4 0-416-185.6-416-416s185.6-416 416-416 416 185.6 416 416S739.2 924.8 508.8 924.8z" p-id="2752"></path><path d="M521.6 652.8c12.8 0 22.4-9.6 22.4-22.4l0-428.8c0-12.8-9.6-22.4-22.4-22.4-12.8 0-22.4 9.6-22.4 22.4l0 428.8C496 640 508.8 652.8 521.6 652.8z" p-id="2753"></path><path d="M521.6 748.8m-35.2 0a1.1 1.1 0 1 0 70.4 0 1.1 1.1 0 1 0-70.4 0Z" p-id="2754"></path></svg>